0
SECTION
2
HEADER
9
$INSUNITS
70
4
9
$ACADVER
1
AC1014
9
$HANDSEED
5
FFFF
0
ENDSEC
0
SECTION
2
TABLES
0
TABLE
2
VPORT
5
8
100
AcDbSymbolTable
0
ENDTAB
0
TABLE
2
LTYPE
5
5
100
AcDbSymbolTable
0
LTYPE
5
14
100
AcDbSymbolTableRecord
100
AcDbLinetypeTableRecord
2
BYBLOCK
70
0
0
LTYPE
5
15
100
AcDbSymbolTableRecord
100
AcDbLinetypeTableRecord
2
BYLAYER
70
0
0
ENDTAB
0
TABLE
2
LAYER
5
2
100
AcDbSymbolTable
70
2
0
LAYER
5
50
100
AcDbSymbolTableRecord
100
AcDbLayerTableRecord
2
0
70
0
6
CONTINUOUS
0
ENDTAB
0
TABLE
2
STYLE
5
3
100
AcDbSymbolTable
70
1
0
STYLE
5
11
100
AcDbSymbolTableRecord
100
AcDbTextStyleTableRecord
2
STANDARD
70
0
0
ENDTAB
0
TABLE
2
VIEW
5
6
100
AcDbSymbolTable
70
0
0
ENDTAB
0
TABLE
2
UCS
5
7
100
AcDbSymbolTable
70
0
0
ENDTAB
0
TABLE
2
APPID
5
9
100
AcDbSymbolTable
70
2
0
APPID
5
12
100
AcDbSymbolTableRecord
100
AcDbRegAppTableRecord
2
ACAD
70
0
0
ENDTAB
0
TABLE
2
DIMSTYLE
5
A
100
AcDbSymbolTable
70
1
0
ENDTAB
0
TABLE
2
BLOCK_RECORD
5
1
100
AcDbSymbolTable
70
1
0
BLOCK_RECORD
5
1F
100
AcDbSymbolTableRecord
100
AcDbBlockTableRecord
2
*MODEL_SPACE
0
BLOCK_RECORD
5
1B
100
AcDbSymbolTableRecord
100
AcDbBlockTableRecord
2
*PAPER_SPACE
0
ENDTAB
0
ENDSEC
0
SECTION
2
BLOCKS
0
BLOCK
5
20
100
AcDbEntity
100
AcDbBlockBegin
2
*MODEL_SPACE
0
ENDBLK
5
21
100
AcDbEntity
100
AcDbBlockEnd
0
BLOCK
5
1C
100
AcDbEntity
100
AcDbBlockBegin
2
*PAPER_SPACE
0
ENDBLK
5
1D
100
AcDbEntity
100
AcDbBlockEnd
0
ENDSEC
0
SECTION
2
ENTITIES
0
LWPOLYLINE
5
100
100
AcDbEntity
8
0
100
AcDbPolyline
90
8
70
1
43
0.0
10
-36.20000000000185
20
-97.100000000000051
10
-45.200000000001872
20
-97.100000000000065
42
-0.41421356237311063
10
-46.200000000001864
20
-96.10000000000008
10
-46.200000000001879
20
-94.900000000000063
42
-0.41421356237309764
10
-45.200000000001872
20
-93.900000000000063
10
-36.200000000001857
20
-93.900000000000077
42
-0.41421356237310802
10
-35.200000000001872
20
-94.900000000000063
10
-35.200000000001872
20
-96.100000000000065
42
-0.4142135623730846
0
LWPOLYLINE
5
101
100
AcDbEntity
8
0
100
AcDbPolyline
90
8
70
1
43
0.0
10
-35.200000000001864
20
-78.853723536471051
10
-35.200000000001879
20
-80.05372353647104
42
-0.4142135623730846
10
-36.200000000001857
20
-81.053723536471011
10
-45.200000000001872
20
-81.053723536471011
42
-0.41421356237309764
10
-46.200000000001864
20
-80.05372353647104
10
-46.200000000001857
20
-78.853723536471009
42
-0.41421356237310281
10
-45.200000000001872
20
-77.853723536471037
10
-36.20000000000185
20
-77.853723536471051
42
-0.4142135623730937
0
CIRCLE
5
102
100
AcDbEntity
8
0
100
AcDbCircle
10
-47.700000000001552
20
-100.41052132443494
30
0
40
1.7000000000000002
210
0
220
-0
230
1
0
CIRCLE
5
103
100
AcDbEntity
8
0
100
AcDbCircle
10
-47.700000000001552
20
-74.543202212036164
30
0
40
1.7000000000000002
210
0
220
-0
230
1
0
CIRCLE
5
104
100
AcDbEntity
8
0
100
AcDbCircle
10
-33.249999991619717
20
-71.760000000003458
30
0
40
1.700000000000002
210
1.577721810442024e-30
220
-2.8025969286496348e-45
230
1
0
LWPOLYLINE
5
105
100
AcDbEntity
8
0
100
AcDbPolyline
90
4
70
1
43
0.0
10
-33.099999999999696
20
-106.60000000000345
42
0.99999999999999989
10
-33.099999999999724
20
-100.4000000000035
10
-33.999999999999702
20
-100.40000000000349
42
0.99999999999999989
10
-33.999999999999702
20
-106.60000000000346
0
CIRCLE
5
106
100
AcDbEntity
8
0
100
AcDbCircle
10
-37.499999999867796
20
-85.000000000003467
30
0
40
1.700000000000002
210
1.577721810442024e-30
220
-2.8025969286496348e-45
230
1
0
LWPOLYLINE
5
107
100
AcDbEntity
8
0
100
AcDbPolyline
90
38
70
1
43
0.0
10
-48.148965895455675
20
-70.800000000000054
10
-49.918366282962708
20
-70.800000000000054
42
0.12202447879180497
10
-50.37142529744181
20
-71.073149691710597
10
-52.177817459306738
20
-72.879541853575518
42
0.1989123673796592
10
-52.500000000001535
20
-73.657359312880757
10
-52.500000000001627
20
-76.142640687119354
42
0.19891236737963894
10
-52.177817459306851
20
-76.920458146424565
10
-51.900000000001583
20
-77.198275605729791
10
-51.900000000001583
20
-97.801724394270366
10
-52.177817459306802
20
-98.079541853575591
42
0.19891236737961746
10
-52.500000000001577
20
-98.857359312880789
10
-52.500000000001606
20
-101.34264068711936
42
0.1989123673796607
10
-52.177817459306809
20
-102.12045814642457
10
-50.388960114928793
20
-103.90931549080256
42
0.13723026089812856
10
-49.872492121484633
20
-104.20000000000005
10
-48.035509936551925
20
-104.20000000000007
42
-0.05771072393193348
10
-47.314213562376239
20
-104.77157287525392
10
-39.732233047033553
20
-112.35355339059677
42
0.1989123673796582
10
-39.378679656440283
20
-112.50000000000352
10
-28.621320343559375
20
-112.50000000000352
42
0.19891236737961313
10
-28.267766952966088
20
-112.3535533905968
10
-26.146446609406453
20
-110.23223304703711
42
0.19891236737964715
10
-25.999999999999723
20
-109.87867965644384
10
-25.999999999999723
20
-94.121320343431151
42
0.19891236737966456
10
-26.14644660940646
20
-93.76776695283786
10
-27.828427124613981
20
-92.085786437630361
42
-0.19891236737965765
10
-28.999999999867786
20
-89.257359312884176
10
-28.999999999867789
20
-78.359489325051101
42
-0.19891236737965859
10
-27.828427124613981
20
-75.531062200304902
10
-26.896446601006467
20
-74.599081676697395
42
0.19891236737963899
10
-26.74999999159974
20
-74.245528286104133
10
-26.749999991599729
20
-69.274169691098351
42
0.19891236737966592
10
-26.896446601006467
20
-68.920616300505074
10
-30.410616292101338
20
-65.406446609410196
42
0.1989123673796708
10
-30.764169682694625
20
-65.260000000003458
10
-42.252135615350696
20
-65.260000000003458
42
0.19891236737965803
10
-42.605689005943994
20
-65.406446609410182
10
-47.427669521280052
20
-70.228427124746261
42
-0.057710723931927797
0
ENDSEC
0
SECTION
2
OBJECTS
0
DICTIONARY
5
C
100
AcDbDictionary
3
ACAD_GROUP
350
D
3
ACAD_MLINESTYLE
350
17
0
DICTIONARY
5
D
100
AcDbDictionary
0
DICTIONARY
5
1A
330
C
100
AcDbDictionary
0
DICTIONARY
5
17
100
AcDbDictionary
0
ENDSEC
0
EOF
