0
SECTION
2
HEADER
9
$INSUNITS
70
4
9
$ACADVER
1
AC1014
9
$HANDSEED
5
FFFF
0
ENDSEC
0
SECTION
2
TABLES
0
TABLE
2
VPORT
5
8
100
AcDbSymbolTable
0
ENDTAB
0
TABLE
2
LTYPE
5
5
100
AcDbSymbolTable
0
LTYPE
5
14
100
AcDbSymbolTableRecord
100
AcDbLinetypeTableRecord
2
BYBLOCK
70
0
0
LTYPE
5
15
100
AcDbSymbolTableRecord
100
AcDbLinetypeTableRecord
2
BYLAYER
70
0
0
ENDTAB
0
TABLE
2
LAYER
5
2
100
AcDbSymbolTable
70
2
0
LAYER
5
50
100
AcDbSymbolTableRecord
100
AcDbLayerTableRecord
2
0
70
0
6
CONTINUOUS
0
ENDTAB
0
TABLE
2
STYLE
5
3
100
AcDbSymbolTable
70
1
0
STYLE
5
11
100
AcDbSymbolTableRecord
100
AcDbTextStyleTableRecord
2
STANDARD
70
0
0
ENDTAB
0
TABLE
2
VIEW
5
6
100
AcDbSymbolTable
70
0
0
ENDTAB
0
TABLE
2
UCS
5
7
100
AcDbSymbolTable
70
0
0
ENDTAB
0
TABLE
2
APPID
5
9
100
AcDbSymbolTable
70
2
0
APPID
5
12
100
AcDbSymbolTableRecord
100
AcDbRegAppTableRecord
2
ACAD
70
0
0
ENDTAB
0
TABLE
2
DIMSTYLE
5
A
100
AcDbSymbolTable
70
1
0
ENDTAB
0
TABLE
2
BLOCK_RECORD
5
1
100
AcDbSymbolTable
70
1
0
BLOCK_RECORD
5
1F
100
AcDbSymbolTableRecord
100
AcDbBlockTableRecord
2
*MODEL_SPACE
0
BLOCK_RECORD
5
1B
100
AcDbSymbolTableRecord
100
AcDbBlockTableRecord
2
*PAPER_SPACE
0
ENDTAB
0
ENDSEC
0
SECTION
2
BLOCKS
0
BLOCK
5
20
100
AcDbEntity
100
AcDbBlockBegin
2
*MODEL_SPACE
0
ENDBLK
5
21
100
AcDbEntity
100
AcDbBlockEnd
0
BLOCK
5
1C
100
AcDbEntity
100
AcDbBlockBegin
2
*PAPER_SPACE
0
ENDBLK
5
1D
100
AcDbEntity
100
AcDbBlockEnd
0
ENDSEC
0
SECTION
2
ENTITIES
0
LWPOLYLINE
5
100
100
AcDbEntity
8
0
100
AcDbPolyline
90
8
70
1
43
0.0
10
45.200000000001694
20
-97.100000000000065
10
36.200000000001673
20
-97.100000000000051
42
-0.4142135623730846
10
35.200000000001694
20
-96.100000000000065
10
35.200000000001694
20
-94.900000000000063
42
-0.41421356237310802
10
36.20000000000168
20
-93.900000000000077
10
45.200000000001694
20
-93.900000000000077
42
-0.41421356237309764
10
46.200000000001687
20
-94.900000000000063
10
46.200000000001687
20
-96.10000000000008
42
-0.41421356237311063
0
LWPOLYLINE
5
101
100
AcDbEntity
8
0
100
AcDbPolyline
90
8
70
1
43
0.0
10
35.200000000001701
20
-80.05372353647104
10
35.200000000001687
20
-78.853723536471051
42
-0.4142135623730937
10
36.200000000001673
20
-77.853723536471065
10
45.200000000001694
20
-77.853723536471023
42
-0.41421356237310281
10
46.200000000001687
20
-78.853723536471009
10
46.200000000001694
20
-80.05372353647104
42
-0.41421356237309764
10
45.200000000001694
20
-81.05372353647104
10
36.20000000000168
20
-81.053723536471011
42
-0.4142135623730846
0
CIRCLE
5
102
100
AcDbEntity
8
0
100
AcDbCircle
10
47.700000000001793
20
-100.41052132443494
30
0
40
1.7000000000000002
210
-4.2524533172070168e-31
220
7.2376113670741893e-91
230
1
0
CIRCLE
5
103
100
AcDbEntity
8
0
100
AcDbCircle
10
47.700000000001793
20
-74.543202212036164
30
0
40
1.7000000000000002
210
-4.2524533172070168e-31
220
7.2376113670741914e-91
230
1
0
LWPOLYLINE
5
104
100
AcDbEntity
8
0
100
AcDbPolyline
90
4
70
1
43
0.0
10
18.499999999999922
20
-106.60000000000349
42
0.99999999999999989
10
18.499999999999964
20
-100.40000000000347
10
17.599999999999962
20
-100.40000000000349
42
0.99999999999999989
10
17.599999999999927
20
-106.60000000000346
0
LWPOLYLINE
5
105
100
AcDbEntity
8
0
100
AcDbPolyline
90
4
70
1
43
0.0
10
33.09999999999993
20
-100.40000000000347
42
0.99999999999999989
10
33.099999999999909
20
-106.60000000000349
10
33.999999999999929
20
-106.60000000000349
42
0.99999999999999989
10
33.999999999999929
20
-100.40000000000347
0
CIRCLE
5
106
100
AcDbEntity
8
0
100
AcDbCircle
10
37.499999999867988
20
-85.000000000003482
30
0
40
1.7000000000000017
210
0
220
-0
230
1
0
CIRCLE
5
107
100
AcDbEntity
8
0
100
AcDbCircle
10
33.249999991619923
20
-71.760000000003458
30
0
40
1.7000000000000017
210
0
220
-0
230
1
0
LINE
5
108
100
AcDbEntity
8
0
100
AcDbLine
10
55.900000000001739
20
-82.536038969321112
30
0
11
59.778679656442186
21
-82.536038969321126
31
0
0
ARC
5
109
100
AcDbEntity
8
0
100
AcDbCircle
10
59.778679656442208
20
-82.036038969321112
30
0
40
0.50000000000000711
210
-6.1629758220391547e-33
220
2.1895288505074956e-46
230
1
100
AcDbArc
50
-90.000000000002444
51
45.000000000002302
0
LINE
5
110
100
AcDbEntity
8
0
100
AcDbLine
10
60.132233047035456
20
-81.682485578727835
30
2.1789409980260939e-33
11
52.500000000001741
21
-74.050252531694127
31
0
0
LINE
5
111
100
AcDbEntity
8
0
100
AcDbLine
10
52.500000000001741
20
-74.050252531694127
30
0
11
52.500000000001741
21
-73.657359312880686
31
0
0
ARC
5
112
100
AcDbEntity
8
0
100
AcDbCircle
10
51.400000000001768
20
-73.657359312880658
30
0
40
1.0999999999999766
210
-0
220
0
230
1
100
AcDbArc
50
0
51
45.000000000001052
0
LINE
5
113
100
AcDbEntity
8
0
100
AcDbLine
10
52.177817459306937
20
-72.879541853575461
30
0
11
50.371425297441959
21
-71.073149691710626
31
0
0
ARC
5
114
100
AcDbEntity
8
0
100
AcDbCircle
10
49.593607838136805
20
-71.850967151015766
30
0
40
1.0999999999999199
210
0
220
-0
230
1
100
AcDbArc
50
44.999999999999474
51
72.828373476870084
0
LINE
5
115
100
AcDbEntity
8
0
100
AcDbLine
10
49.918366282962708
20
-70.80000000000004
30
0
11
48.148965895455675
21
-70.800000000000068
31
0
0
ARC
5
116
100
AcDbEntity
8
0
100
AcDbCircle
10
50.256096646026407
20
-67.399999999999736
30
0
40
4.0000000000003819
210
0
220
0
230
1
100
AcDbArc
50
225.0000000000004
51
238.2116693829486
0
LINE
5
117
100
AcDbEntity
8
0
100
AcDbLine
10
47.427669521279967
20
-70.228427124746219
30
0
11
42.605689005944171
21
-65.406446609410196
31
0
0
ARC
5
118
100
AcDbEntity
8
0
100
AcDbCircle
10
42.252135615350895
20
-65.76000000000343
30
0
40
0.49999999999997385
210
4.3578819960524068e-33
220
-4.3578819960528447e-33
230
1
100
AcDbArc
50
44.999999999996547
51
90
0
LINE
5
119
100
AcDbEntity
8
0
100
AcDbLine
10
42.252135615350895
20
-65.260000000003458
30
2.1980816975798217e-46
11
30.764169682694838
21
-65.260000000003458
31
0
0
ARC
5
120
100
AcDbEntity
8
0
100
AcDbCircle
10
30.764169682694856
20
-65.760000000003501
30
0
40
0.50000000000004263
210
-6.1629758220391547e-33
220
-2.18952885050734e-46
230
1
100
AcDbArc
50
90.000000000002032
51
134.99999999999972
0
LINE
5
121
100
AcDbEntity
8
0
100
AcDbLine
10
30.410616292101555
20
-65.406446609410196
30
-2.1789409980263926e-33
11
26.896446601006645
21
-68.920616300505102
31
0
0
ARC
5
122
100
AcDbEntity
8
0
100
AcDbCircle
10
27.249999991599939
20
-69.274169691098379
30
0
40
0.50000000000001477
210
0
220
0
230
1
100
AcDbArc
50
135.00000000000145
51
180
0
LINE
5
123
100
AcDbEntity
8
0
100
AcDbLine
10
26.749999991599928
20
-69.274169691098379
30
0
11
26.749999991599921
21
-74.245528286104104
31
0
0
ARC
5
124
100
AcDbEntity
8
0
100
AcDbCircle
10
27.249999991599921
20
-74.245528286104104
30
0
40
0.49999999999999822
210
0
220
0
230
1
100
AcDbArc
50
180
51
224.99999999999943
0
LINE
5
125
100
AcDbEntity
8
0
100
AcDbLine
10
26.896446601006652
20
-74.599081676697367
30
0
11
27.828427124614169
21
-75.531062200304888
31
0
0
ARC
5
126
100
AcDbEntity
8
0
100
AcDbCircle
10
24.999999999867995
20
-78.359489325051086
30
0
40
3.9999999999999947
210
-6.1629758220391547e-33
220
-1.9446922743316068e-62
230
1
100
AcDbArc
50
0
51
45.000000000000249
0
LINE
5
127
100
AcDbEntity
8
0
100
AcDbLine
10
28.999999999867988
20
-78.359489325051086
30
2.4651903288156586e-32
11
28.999999999867999
21
-89.257359312884176
31
0
0
ARC
5
128
100
AcDbEntity
8
0
100
AcDbCircle
10
24.999999999867995
20
-89.257359312884176
30
0
40
4.0000000000000018
210
4.3578819960526121e-33
220
4.357881996052634e-33
230
1
100
AcDbArc
50
-44.999999999999851
51
0
0
LINE
5
129
100
AcDbEntity
8
0
100
AcDbLine
10
27.828427124614194
20
-92.085786437630361
30
4.5284811682096688e-48
11
26.585786437494924
21
-93.328427124749652
31
0
0
ARC
5
130
100
AcDbEntity
8
0
100
AcDbCircle
10
23.757359312748726
20
-90.500000000003467
30
0
40
4.0000000000000036
210
-6.1629758220391547e-33
220
-1.1321202920524167e-48
230
1
100
AcDbArc
50
270
51
315.00000000000017
0
LINE
5
131
100
AcDbEntity
8
0
100
AcDbLine
10
23.757359312748726
20
-94.500000000003467
30
-4.5284811682096706e-48
11
14.221320335159602
21
-94.500000000003453
31
0
0
SPLINE
5
132
100
AcDbEntity
8
0
100
AcDbSpline
70
0
71
3
72
10
73
6
74
0
42
0.000000001
43
0.0000000001
44
0.0000000001
40
-0.039395688984129394
40
-0.039395688984129394
40
-0.039395688984129394
40
-0.039395688984129394
40
-0.019468793124611819
40
-0.019468793124611819
40
0
40
0
40
0
40
0
10
14.221320335159604
20
-94.500000000003453
30
0
10
14.154897348961214
20
-94.500000000003453
30
0
10
14.0891353903056
20
-94.513236039290007
30
0
10
13.968041763976053
20
-94.564039619669828
30
0
10
13.913655330032746
20
-94.600558223943779
30
0
10
13.867766944566313
20
-94.646446609410205
30
0
0
LINE
5
133
100
AcDbEntity
8
0
100
AcDbLine
10
13.867766944566313
20
-94.646446609410205
30
0
11
11.746446601006673
21
-96.767766952969865
31
0
0
SPLINE
5
134
100
AcDbEntity
8
0
100
AcDbSpline
70
0
71
3
72
10
73
6
74
0
42
0.000000001
43
0.0000000001
44
0.0000000001
40
-0.039395688984128777
40
-0.039395688984128777
40
-0.039395688984128777
40
-0.039395688984128777
40
-0.019468793124612457
40
-0.019468793124612457
40
0
40
0
40
0
40
0
10
11.746446601006671
20
-96.767766952969865
30
0
10
11.699478457039127
20
-96.814735096937397
30
0
10
11.662337023265204
20
-96.870595116982429
30
0
10
11.612634455124237
20
-96.992144797513632
30
0
10
11.599999991599944
20
-97.056424366481082
30
0
10
11.599999991599944
20
-97.121320343563141
30
0
0
LINE
5
135
100
AcDbEntity
8
0
100
AcDbLine
10
11.599999991599944
20
-97.121320343563156
30
0
11
11.599999991599944
21
-109.87867965644385
31
0
0
SPLINE
5
136
100
AcDbEntity
8
0
100
AcDbSpline
70
0
71
3
72
10
73
6
74
0
42
0.000000001
43
0.0000000001
44
0.0000000001
40
-0.039395688984128527
40
-0.039395688984128527
40
-0.039395688984128527
40
-0.039395688984128527
40
-0.019468793124614584
40
-0.019468793124614584
40
0
40
0
40
0
40
0
10
11.599999991599944
20
-109.87867965644385
30
0
10
11.599999991599944
20
-109.94510264264223
30
0
10
11.613236030886467
20
-110.01086460129783
30
0
10
11.664039611266272
20
-110.13195822762736
30
0
10
11.700558215540225
20
-110.18634466157069
30
0
10
11.746446601006667
20
-110.23223304703713
30
0
0
LINE
5
137
100
AcDbEntity
8
0
100
AcDbLine
10
11.746446601006667
20
-110.23223304703713
30
0
11
13.867766944566316
21
-112.35355339059677
31
0
0
SPLINE
5
138
100
AcDbEntity
8
0
100
AcDbSpline
70
0
71
3
72
10
73
6
74
0
42
0.000000001
43
0.0000000001
44
0.0000000001
40
-0.039395688984122754
40
-0.039395688984122754
40
-0.039395688984122754
40
-0.039395688984122754
40
-0.019468793124603753
40
-0.019468793124603753
40
0
40
0
40
0
40
0
10
13.867766944566316
20
-112.35355339059677
30
0
10
13.91473508853387
20
-112.40052153456431
30
0
10
13.970595108578898
20
-112.43766296833827
30
0
10
14.092144789110101
20
-112.48736553647922
30
0
10
14.156424358077583
20
-112.50000000000348
30
0
10
14.221320335159596
20
-112.50000000000348
30
0
0
LINE
5
139
100
AcDbEntity
8
0
100
AcDbLine
10
14.221320335159596
20
-112.5000000000035
30
0
11
39.378679656440497
21
-112.50000000000348
31
0
0
ARC
5
140
100
AcDbEntity
8
0
100
AcDbCircle
10
39.378679656440511
20
-112.0000000000035
30
0
40
0.49999999999998934
210
0
220
0
230
1
100
AcDbArc
50
269.99999999999835
51
315.00000000000227
0
LINE
5
141
100
AcDbEntity
8
0
100
AcDbLine
10
39.732233047033787
20
-112.35355339059674
30
1.2385845582378691e-46
11
47.31421356237621
21
-104.77157287525395
31
0
0
ARC
5
142
100
AcDbEntity
8
0
100
AcDbCircle
10
50.142640687122402
20
-107.60000000000008
30
0
40
3.9999999999999614
210
0
220
0
230
1
100
AcDbArc
50
121.7883306170513
51
135.00000000000065
0
LINE
5
143
100
AcDbEntity
8
0
100
AcDbLine
10
48.035509936551897
20
-104.2000000000001
30
0
11
49.872492121484527
21
-104.20000000000009
31
0
0
ARC
5
144
100
AcDbEntity
8
0
100
AcDbCircle
10
49.611142655623709
20
-103.1314980314974
30
0
40
1.0999999999999377
210
4.1539699695682874e-50
220
1.0160372790607887e-50
230
1
100
AcDbArc
50
283.74436872482539
51
315.00000000000182
0
LINE
5
145
100
AcDbEntity
8
0
100
AcDbLine
10
50.388960114928885
20
-103.90931549080253
30
1.4488339058093535e-33
11
52.177817459306951
21
-102.12045814642458
31
0
0
ARC
5
146
100
AcDbEntity
8
0
100
AcDbCircle
10
51.400000000001754
20
-101.3426406871194
30
0
40
1.099999999999989
210
4.3578819960525977e-33
220
4.357881996052647e-33
230
1
100
AcDbArc
50
-44.999999999999496
51
0
0
LINE
5
147
100
AcDbEntity
8
0
100
AcDbLine
10
52.500000000001741
20
-101.34264068711937
30
-4.7936701956578886e-33
11
52.500000000001812
21
-98.857359312880789
31
0
0
ARC
5
148
100
AcDbEntity
8
0
100
AcDbCircle
10
51.400000000001704
20
-98.857359312880831
30
0
40
1.1000000000001098
210
0
220
-0
230
1
100
AcDbArc
50
0
51
44.999999999998167
0
LINE
5
149
100
AcDbEntity
8
0
100
AcDbLine
10
52.177817459307008
20
-98.079541853575577
30
0
11
51.900000000001789
21
-97.801724394270323
31
0
0
LINE
5
150
100
AcDbEntity
8
0
100
AcDbLine
10
51.900000000001789
20
-97.801724394270323
30
0
11
51.900000000001739
21
-86.536038969321112
31
0
0
ARC
5
151
100
AcDbEntity
8
0
100
AcDbCircle
10
55.900000000001739
20
-86.536038969321112
30
0
40
4.0000000000000036
210
-6.1629758220391547e-33
220
0
230
1
100
AcDbArc
50
90
51
180
0
ENDSEC
0
SECTION
2
OBJECTS
0
DICTIONARY
5
C
100
AcDbDictionary
3
ACAD_GROUP
350
D
3
ACAD_MLINESTYLE
350
17
0
DICTIONARY
5
D
100
AcDbDictionary
0
DICTIONARY
5
1A
330
C
100
AcDbDictionary
0
DICTIONARY
5
17
100
AcDbDictionary
0
ENDSEC
0
EOF
